<svg xmlns="http://www.w3.org/2000/svg" width="183.25" height="17.551" viewBox="0 0 183.25 17.551">
  <g id="logo_top" transform="translate(-0.02 0.01)">
    <g id="그룹_3" data-name="그룹 3" transform="translate(0.27 0.24)">
      <g id="그룹_1" data-name="그룹 1" transform="translate(35.25 1.831)">
        <path id="패스_1" data-name="패스 1" d="M64.75,15.989V13.332h7.315c1.028,0,1.487-.569,1.487-1.667V3.59h2.777v8.37c0,2.69-1.148,4.029-3.657,4.029H64.755Z" transform="translate(-64.75 -3.59)" fill="#054391"/>
        <path id="패스_2" data-name="패스 2" d="M92.674,15.989C90.164,15.989,89,14.649,89,11.96V7.619c0-2.69,1.164-4.029,3.674-4.029h8.359c2.509,0,3.657,1.339,3.657,4.029V11.96c0,2.69-1.148,4.029-3.657,4.029Zm9.244-8.074c0-1.137-.459-1.684-1.487-1.684H93.275c-1.028,0-1.487.552-1.487,1.684V11.67c0,1.1.459,1.667,1.487,1.667h7.156c1.022,0,1.487-.569,1.487-1.667V7.914Z" transform="translate(-75.743 -3.59)" fill="#054391"/>
        <path id="패스_3" data-name="패스 3" d="M124.314,15.989c-2.509,0-3.674-1.339-3.674-4.029V7.619c0-2.69,1.164-4.029,3.674-4.029h8.359c2.509,0,3.657,1.339,3.657,4.029V11.96c0,2.69-1.148,4.029-3.657,4.029Zm9.244-8.074c0-1.137-.459-1.684-1.487-1.684h-7.156c-1.022,0-1.487.552-1.487,1.684V11.67c0,1.1.459,1.667,1.487,1.667h7.156c1.022,0,1.487-.569,1.487-1.667V7.914Z" transform="translate(-90.086 -3.59)" fill="#054391"/>
        <path id="패스_4" data-name="패스 4" d="M165.141,15.989V7.914c0-1.115-.476-1.684-1.465-1.684h-8.359v9.758H152.54V3.59h11.715c2.493,0,3.657,1.356,3.657,4.029v8.37Z" transform="translate(-104.547 -3.59)" fill="#054391"/>
        <path id="패스_5" data-name="패스 5" d="M187.4,15.989c-2.509,0-3.674-1.339-3.674-4.029V7.619c0-2.69,1.164-4.029,3.674-4.029h10.939V6.225H188.005c-1.022,0-1.487.552-1.487,1.684v3.756c0,1.1.459,1.667,1.487,1.667h10.338v2.657Z" transform="translate(-118.686 -3.59)" fill="#054391"/>
        <path id="패스_6" data-name="패스 6" d="M225.934,15.989V10.806h-9.507v5.182H213.65V3.59h2.777V8.335h9.507V3.59h2.777v12.4Z" transform="translate(-132.25 -3.59)" fill="#054391"/>
        <path id="패스_7" data-name="패스 7" d="M247.257,15.989c-2.034,0-2.777-.989-2.777-2.8V11.5c0-1.815.743-2.8,2.777-2.8H257.4V7.914c0-1.137-.476-1.684-1.487-1.684H244.781V3.59h11.737c2.493,0,3.641,1.339,3.641,4.029v8.37ZM257.4,10.768h-9.135c-.743,0-1.022.383-1.022,1.082v.623c0,.733.284,1.115,1.022,1.115H257.4Z" transform="translate(-146.226 -3.59)" fill="#054391"/>
        <path id="패스_8" data-name="패스 8" d="M289.813,15.989a.889.889,0,0,1-.3-.8V12.878c0-.8-.5-1.115-1.252-1.115h-8.993v4.231H276.49V3.59H289.32c2.034,0,2.777.989,2.777,2.8V7.985c0,2.05-.973,2.362-1.695,2.471.743.071,1.875.476,1.875,2.378V15.18a.9.9,0,0,0,.317.8h-2.777Zm-.476-8.916c0-.716-.284-1.082-1.022-1.082h-9.047V9.467h8.922c.689,0,1.148-.273,1.148-1.082V7.067Z" transform="translate(-160.737 -3.59)" fill="#054391"/>
        <path id="패스_9" data-name="패스 9" d="M313.381,15.989V6.23H307.16V3.59h15.23V6.225h-6.254v9.764Z" transform="translate(-174.64 -3.59)" fill="#054391"/>
      </g>
      <g id="그룹_2" data-name="그룹 2">
        <path id="패스_10" data-name="패스 10" d="M26.685,9.954,24.958,7.8a.944.944,0,0,0-.64-1.64.6.6,0,0,0-.142.016l-2.87-2.87a1.011,1.011,0,0,0,.033-.23.95.95,0,0,0-.946-.946.969.969,0,0,0-.377.077L15.807.983A.944.944,0,0,0,14.883.24a.954.954,0,0,0-.929.793L8.64,1.645a.937.937,0,0,0-.793-.432.95.95,0,0,0-.946.946.692.692,0,0,0,.016.153L3.381,4.471a.944.944,0,0,0-1.629.651.941.941,0,0,0,.333.716L1.32,7.5c-.033,0-.071-.011-.1-.011a.946.946,0,1,0,0,1.892.6.6,0,0,0,.1-.011l.558,1.153A.943.943,0,0,0,3.342,11.7l4.4.257a.945.945,0,0,0,1.837-.312.539.539,0,0,0-.011-.093l1.651-1.033a.941.941,0,0,0,1.607-.541L14.741,9.9a.949.949,0,0,0,.88.6h.038l-.579,1.9a.945.945,0,0,0,.3,1.842.692.692,0,0,0,.153-.016l1.722,1.924a1.2,1.2,0,0,0-.022.2.946.946,0,0,0,1.892,0,.916.916,0,0,0-.055-.3l1.186-.809a.938.938,0,0,0,1.356-.847,1.022,1.022,0,0,0-.016-.186l1.777-.159a.926.926,0,0,0,.623.235.95.95,0,0,0,.946-.946.978.978,0,0,0-.082-.383l.093.049,1.471-1.181c.038,0,.077.011.115.011a.944.944,0,0,0,.159-1.875ZM24.318,6.68a.432.432,0,1,1-.432.432A.433.433,0,0,1,24.318,6.68ZM20.388,2.651a.432.432,0,1,1-.432.432A.433.433,0,0,1,20.388,2.651Zm0,1.378a.944.944,0,0,0,.705-.323L23.75,6.363a.937.937,0,0,0-.377.749.922.922,0,0,0,.12.454l-2.17,1.088a.941.941,0,0,0-.623-.241.9.9,0,0,0-.421.1L17.687,6.21a.927.927,0,0,0,.1-.426.953.953,0,0,0-.115-.443L19.939,3.9a.922.922,0,0,0,.454.12Zm.738,5.33a.432.432,0,1,1-.432-.432A.433.433,0,0,1,21.126,9.359ZM15.79,1.432l3.821,1.11a.959.959,0,0,0-.169.536A.944.944,0,0,0,19.6,3.6l-2.22,1.41a.944.944,0,0,0-.547-.175.982.982,0,0,0-.312.055L15.479,1.913a.939.939,0,0,0,.306-.481Zm1.481,4.352a.432.432,0,1,1-.432-.432A.433.433,0,0,1,17.272,5.783ZM14.877.759a.432.432,0,1,1-.432.432A.433.433,0,0,1,14.877.759Zm-6.1,1.307,5.2-.6a.946.946,0,0,0,.9.672.865.865,0,0,0,.208-.027l1.061,3.029a.973.973,0,0,0-.23.432l-3.952-.421V5.116a.95.95,0,0,0-.946-.946.962.962,0,0,0-.514.153L8.634,2.667a.962.962,0,0,0,.153-.514.6.6,0,0,0-.011-.1Zm2.679,3.056a.432.432,0,1,1-.432-.432A.433.433,0,0,1,11.455,5.122Zm-1.241-.481a.95.95,0,0,0-.137.481.931.931,0,0,0,.038.251l-2.865.705a.925.925,0,0,0-.224-.159l.585-2.843a1.008,1.008,0,0,0,.224.033.913.913,0,0,0,.481-.137l1.892,1.673ZM7.836,1.727a.432.432,0,1,1-.432.432A.433.433,0,0,1,7.836,1.727ZM3.583,4.838,7.071,2.711a.944.944,0,0,0,.142.153L6.606,5.805H6.579a.944.944,0,0,0-.536,1.722l-.279.984a.976.976,0,0,0-.306-.055,1.01,1.01,0,0,0-.312.055L3.386,5.74a.941.941,0,0,0,.241-.623.787.787,0,0,0-.049-.279ZM7.011,6.751a.432.432,0,1,1-.432-.432A.429.429,0,0,1,7.011,6.751ZM5.89,9.4a.432.432,0,1,1-.432-.432A.433.433,0,0,1,5.89,9.4ZM2.686,4.69a.432.432,0,1,1-.432.432A.429.429,0,0,1,2.686,4.69ZM1.2,8.867a.432.432,0,1,1,.432-.432A.429.429,0,0,1,1.2,8.867ZM2.6,11.54a.432.432,0,1,1,.432-.432A.433.433,0,0,1,2.6,11.54ZM3.228,10.4A.927.927,0,0,0,2.2,10.255L1.73,9.216a.945.945,0,0,0-.011-1.58l.738-1.607a1.057,1.057,0,0,0,.23.033.958.958,0,0,0,.355-.071l1.744,2.75a.934.934,0,0,0-.273.661,1.273,1.273,0,0,0,.022.208L3.222,10.4Zm4.466,1.121L3.534,11.3a1.078,1.078,0,0,0,.022-.191.844.844,0,0,0-.066-.333l1.246-.771a.934.934,0,0,0,1.41.055L7.7,11.338l.071-.087a1.21,1.21,0,0,0-.082.273Zm.935.558a.432.432,0,1,1,.432-.432A.433.433,0,0,1,8.629,12.081ZM11,10.157l-1.574.984a.944.944,0,0,0-.8-.437.965.965,0,0,0-.672.279l-1.591-1.3a.922.922,0,0,0,.044-.273.946.946,0,0,0-.317-.7l.066.016.29-1.039a1.039,1.039,0,0,0,.137.016.933.933,0,0,0,.711-.328l3.712,2.17a.913.913,0,0,0-.06.323,1.043,1.043,0,0,0,.049.3Zm.9.137a.432.432,0,1,1,.432-.432A.433.433,0,0,1,11.9,10.293Zm2.788-.82-1.9.082a.945.945,0,0,0-.891-.64.931.931,0,0,0-.651.262L7.5,6.991a.881.881,0,0,0,.033-.241,1.038,1.038,0,0,0-.049-.29l2.854-.7a.942.942,0,0,0,.689.306.952.952,0,0,0,.825-.492l4.073.432a.981.981,0,0,0,.35.53l-.071-.022-.574,2.1h-.016a.95.95,0,0,0-.94.864Zm.94.514a.432.432,0,1,1,.432-.432A.433.433,0,0,1,15.626,9.987Zm-.246,3.734a.432.432,0,1,1,.432-.432A.429.429,0,0,1,15.38,13.721Zm.137-1.367.569-1.979a.947.947,0,0,0,.487-.825.962.962,0,0,0-.514-.836l.552-2.028a.881.881,0,0,0,.241.033.921.921,0,0,0,.563-.191L19.95,8.779a.921.921,0,0,0-.191.563.937.937,0,0,0,.164.53L15.9,12.491a.956.956,0,0,0-.388-.148Zm2.662,4.417a.432.432,0,1,1,.432-.432A.433.433,0,0,1,18.179,16.772Zm.656-1.11a.94.94,0,0,0-.656-.268.952.952,0,0,0-.711.328l-1.52-1.678a.918.918,0,0,0,.344-.508l3.482.558a.872.872,0,0,0-.049.29.944.944,0,0,0,.2.579l-1.093.7Zm1.837-.847a.432.432,0,1,1,.432-.432A.433.433,0,0,1,20.672,14.814Zm2.378-1.481a.844.844,0,0,0,.066.333l-1.7.137a.94.94,0,0,0-1.372-.126L16.309,13.1a.991.991,0,0,0-.109-.284l4.045-2.651a.9.9,0,0,0,.465.126.927.927,0,0,0,.541-.175l2.187,2.444a.945.945,0,0,0-.388.76Zm.946.432a.432.432,0,1,1,.432-.432A.433.433,0,0,1,24,13.765Zm.651-1.115A.931.931,0,0,0,24,12.387a.729.729,0,0,0-.153.016L21.536,9.8A.9.9,0,0,0,21.579,9l2.22-1.11a.937.937,0,0,0,.53.164.925.925,0,0,0,.246-.038l1.689,1.963a.943.943,0,0,0-.251,1.689l-1.367.979Zm1.892-1.334a.432.432,0,1,1,.432-.432A.433.433,0,0,1,26.538,11.316Z" transform="translate(-0.27 -0.24)" fill="#054391" stroke="#054391" stroke-miterlimit="10" stroke-width="0.5"/>
        <path id="패스_11" data-name="패스 11" d="M22,23.022,16.43,21.94l.126-.41,5.571,1.082Z" transform="translate(-7.596 -9.891)" fill="#054391" stroke="#054391" stroke-miterlimit="10" stroke-width="0.5"/>
      </g>
    </g>
  </g>
</svg>
