<svg id="Layer_1" data-name="Layer 1" xmlns="http://www.w3.org/2000/svg" viewBox="0 0 24 24"><defs><style>.cls-1{fill:#054391;}.cls-2{fill:none;stroke:#fff;stroke-linecap:round;stroke-linejoin:round;stroke-width:2px;}.cls-3{fill:#fff;}</style></defs><rect class="cls-1" width="24" height="24" rx="1.04"/><g id="check-2"><path id="패스_871" data-name="패스 871" class="cls-2" d="M18,4" transform="translate(2 2)"/><path id="패스_871-2" data-name="패스 871" class="cls-2" d="M8,14.07" transform="translate(2 2)"/><path id="패스_871-3" data-name="패스 871" class="cls-2" d="M3.93,10" transform="translate(2 2)"/></g><path class="cls-3" d="M15,4.21a1.2,1.2,0,0,0-1.64.43L8.57,12.81,5.88,10a1.2,1.2,0,0,0-1.7,0,1.19,1.19,0,0,0,0,1.69l3.79,4a1,1,0,0,0,.13.09.81.81,0,0,0,.14.12l.09,0,.1,0A1.15,1.15,0,0,0,8.8,16h0a1.34,1.34,0,0,0,.39-.07l.09,0a1.15,1.15,0,0,0,.33-.21h0a1.09,1.09,0,0,0,.21-.26L15.4,5.85A1.2,1.2,0,0,0,15,4.21Z" transform="translate(2 2)"/></svg>