<svg id="Layer_1" data-name="Layer 1" xmlns="http://www.w3.org/2000/svg" viewBox="0 0 17.94 17.94"><defs><style>.cls-1{fill:#043677;}</style></defs><path class="cls-1" d="M1.8,19.1a.74.74,0,0,1-.52-.22.73.73,0,0,1-.21-.63l.93-6a.71.71,0,0,1,.21-.41l8.72-8.72a.75.75,0,0,1,1,0l5,5a.71.71,0,0,1,.22.52.74.74,0,0,1-.22.52L8.28,18a.7.7,0,0,1-.4.2l-6,.93Zm1.62-6.35-.74,4.73,4.73-.74,8-8-4-4Z" transform="translate(-1.06 -1.16)"/><path class="cls-1" d="M1.8,19.1a.74.74,0,0,1-.52-.22.73.73,0,0,1-.21-.63L1.58,15a.74.74,0,0,1,.5-.59.77.77,0,0,1,.75.18l2.76,2.76a.74.74,0,0,1-.41,1.25l-3.27.51Zm1-2.46-.13.84.85-.13Z" transform="translate(-1.06 -1.16)"/><path class="cls-1" d="M16.48,9.45A.78.78,0,0,1,16,9.24l-5-5a.73.73,0,0,1-.22-.52.74.74,0,0,1,.22-.52L12.19,1.9a2.52,2.52,0,0,1,3.56,0h0l2.51,2.52A2.46,2.46,0,0,1,19,6.2,2.5,2.5,0,0,1,18.26,8L17,9.24A.76.76,0,0,1,16.48,9.45Zm-4-5.77,4,4,.74-.74a1,1,0,0,0,.31-.74,1,1,0,0,0-.31-.74L14.71,2.94a1,1,0,0,0-1.48,0Z" transform="translate(-1.06 -1.16)"/></svg>