<svg xmlns="http://www.w3.org/2000/svg" width="171.498" height="16.456" viewBox="0 0 171.498 16.456">
  <g id="LOGO" transform="translate(-0.02 0.01)">
    <g id="그룹_3" data-name="그룹 3" transform="translate(0.27 0.24)">
      <g id="그룹_1" data-name="그룹 1" transform="translate(32.986 1.714)">
        <path id="패스_1" data-name="패스 1" d="M64.75,15.192V12.706h6.845c.962,0,1.391-.532,1.391-1.56V3.59h2.6v7.832c0,2.517-1.074,3.77-3.422,3.77H64.755Z" transform="translate(-64.75 -3.59)" fill="#054391"/>
        <path id="패스_2" data-name="패스 2" d="M92.438,15.192c-2.348,0-3.438-1.253-3.438-3.77V7.36c0-2.517,1.09-3.77,3.438-3.77h7.822c2.348,0,3.422,1.253,3.422,3.77v4.062c0,2.517-1.074,3.77-3.422,3.77Zm8.651-7.556c0-1.064-.43-1.576-1.391-1.576H93c-.962,0-1.391.517-1.391,1.576v3.514c0,1.028.43,1.56,1.391,1.56h6.7c.957,0,1.391-.532,1.391-1.56V7.637Z" transform="translate(-76.594 -3.59)" fill="#054391"/>
        <path id="패스_3" data-name="패스 3" d="M124.078,15.192c-2.348,0-3.438-1.253-3.438-3.77V7.36c0-2.517,1.09-3.77,3.438-3.77H131.9c2.348,0,3.422,1.253,3.422,3.77v4.062c0,2.517-1.074,3.77-3.422,3.77Zm8.651-7.556c0-1.064-.43-1.576-1.391-1.576h-6.7c-.957,0-1.391.517-1.391,1.576v3.514c0,1.028.43,1.56,1.391,1.56h6.7c.957,0,1.391-.532,1.391-1.56V7.637Z" transform="translate(-92.048 -3.59)" fill="#054391"/>
        <path id="패스_4" data-name="패스 4" d="M164.332,15.192V7.637c0-1.044-.445-1.576-1.371-1.576h-7.822v9.132h-2.6V3.59H163.5c2.333,0,3.422,1.269,3.422,3.77v7.832Z" transform="translate(-107.629 -3.59)" fill="#054391"/>
        <path id="패스_5" data-name="패스 5" d="M187.168,15.192c-2.348,0-3.438-1.253-3.438-3.77V7.36c0-2.517,1.09-3.77,3.438-3.77H197.4V6.056H187.73c-.957,0-1.391.517-1.391,1.576v3.514c0,1.028.43,1.56,1.391,1.56H197.4v2.486Z" transform="translate(-122.863 -3.59)" fill="#054391"/>
        <path id="패스_6" data-name="패스 6" d="M225.145,15.192v-4.85h-8.9v4.85h-2.6V3.59h2.6V8.03h8.9V3.59h2.6v11.6Z" transform="translate(-137.477 -3.59)" fill="#054391"/>
        <path id="패스_7" data-name="패스 7" d="M247.079,15.192c-1.9,0-2.6-.926-2.6-2.624V10.992c0-1.7.7-2.619,2.6-2.619h9.495V7.637c0-1.064-.445-1.576-1.391-1.576H244.761V3.59h10.983c2.333,0,3.407,1.253,3.407,3.77v7.832Zm9.495-4.886h-8.548c-.7,0-.957.358-.957,1.013V11.9c0,.686.266,1.044.957,1.044h8.548Z" transform="translate(-152.535 -3.59)" fill="#054391"/>
        <path id="패스_8" data-name="패스 8" d="M288.957,15.192a.831.831,0,0,1-.281-.752V12.282c0-.752-.466-1.044-1.171-1.044h-8.415V15.2h-2.6V3.59H288.5c1.9,0,2.6.926,2.6,2.624V7.7c0,1.918-.911,2.21-1.586,2.312.7.067,1.755.445,1.755,2.225v2.195a.841.841,0,0,0,.3.752h-2.6Zm-.445-8.344c0-.67-.266-1.013-.957-1.013h-8.466V9.089h8.349c.645,0,1.074-.256,1.074-1.013V6.844Z" transform="translate(-168.17 -3.59)" fill="#054391"/>
        <path id="패스_9" data-name="패스 9" d="M312.982,15.192V6.061H307.16V3.59h14.252V6.056H315.56v9.137Z" transform="translate(-183.15 -3.59)" fill="#054391"/>
      </g>
      <g id="그룹_2" data-name="그룹 2">
        <path id="패스_10" data-name="패스 10" d="M24.989,9.331,23.373,7.315a.883.883,0,0,0-.6-1.535.558.558,0,0,0-.133.015L19.955,3.11a.946.946,0,0,0,.031-.215A.889.889,0,0,0,19.1,2.01a.907.907,0,0,0-.353.072L14.809.936a.884.884,0,0,0-.865-.7.893.893,0,0,0-.87.742L8.1,1.555a.877.877,0,0,0-.742-.4.889.889,0,0,0-.885.885.647.647,0,0,0,.015.143L3.181,4.2a.883.883,0,0,0-1.524.609.88.88,0,0,0,.312.67L1.252,7.034c-.031,0-.067-.01-.1-.01a.885.885,0,0,0,0,1.77.564.564,0,0,0,.092-.01l.522,1.079a.882.882,0,0,0,1.376,1.1l4.118.24a.884.884,0,0,0,1.719-.292.5.5,0,0,0-.01-.087l1.545-.967a.88.88,0,0,0,1.5-.506l1.79-.077a.888.888,0,0,0,.824.563h.036l-.542,1.775a.884.884,0,0,0,.276,1.724.647.647,0,0,0,.143-.015l1.611,1.8a1.127,1.127,0,0,0-.02.184.885.885,0,0,0,1.77,0,.857.857,0,0,0-.051-.281l1.11-.757a.877.877,0,0,0,1.269-.793.957.957,0,0,0-.015-.174l1.663-.148a.867.867,0,0,0,.583.22.889.889,0,0,0,.885-.885.916.916,0,0,0-.077-.358l.087.046,1.376-1.1c.036,0,.072.01.107.01a.883.883,0,0,0,.148-1.755ZM22.774,6.266a.4.4,0,1,1-.4.4A.4.4,0,0,1,22.774,6.266ZM19.1,2.5a.4.4,0,1,1-.4.4A.4.4,0,0,1,19.1,2.5Zm0,1.289a.883.883,0,0,0,.66-.3L22.242,5.97a.877.877,0,0,0-.353.7A.863.863,0,0,0,22,7.1L19.971,8.113a.881.881,0,0,0-.583-.225.847.847,0,0,0-.394.1L16.569,5.826a.868.868,0,0,0,.1-.4.892.892,0,0,0-.107-.414l2.118-1.345a.863.863,0,0,0,.425.113Zm.691,4.988a.4.4,0,1,1-.4-.4A.4.4,0,0,1,19.786,8.773ZM14.793,1.355l3.576,1.038a.9.9,0,0,0-.159.5.883.883,0,0,0,.148.491l-2.077,1.32a.883.883,0,0,0-.512-.164.919.919,0,0,0-.292.051L14.5,1.805a.879.879,0,0,0,.286-.45ZM16.18,5.427a.4.4,0,1,1-.4-.4A.4.4,0,0,1,16.18,5.427ZM13.939.726a.4.4,0,1,1-.4.4A.4.4,0,0,1,13.939.726ZM8.23,1.949l4.87-.563a.886.886,0,0,0,.844.629.81.81,0,0,0,.194-.026l.992,2.834a.911.911,0,0,0-.215.4l-3.7-.394V4.8a.889.889,0,0,0-.885-.885.9.9,0,0,0-.481.143L8.1,2.511A.9.9,0,0,0,8.24,2.03a.564.564,0,0,0-.01-.092Zm2.507,2.86a.4.4,0,1,1-.4-.4A.4.4,0,0,1,10.737,4.808Zm-1.161-.45a.889.889,0,0,0-.128.45.871.871,0,0,0,.036.235L6.8,5.7a.865.865,0,0,0-.21-.148L7.14,2.9a.943.943,0,0,0,.21.031A.854.854,0,0,0,7.8,2.8L9.57,4.363ZM7.35,1.631a.4.4,0,1,1-.4.4A.4.4,0,0,1,7.35,1.631ZM3.37,4.542l3.264-1.99a.884.884,0,0,0,.133.143L6.2,5.448H6.174a.883.883,0,0,0-.5,1.611l-.261.921a.913.913,0,0,0-.286-.051.945.945,0,0,0-.292.051L3.186,5.386A.881.881,0,0,0,3.411,4.8a.737.737,0,0,0-.046-.261Zm3.208,1.79a.4.4,0,1,1-.4-.4A.4.4,0,0,1,6.578,6.333ZM5.529,8.814a.4.4,0,1,1-.4-.4A.4.4,0,0,1,5.529,8.814Zm-3-4.41a.4.4,0,1,1-.4.4A.4.4,0,0,1,2.531,4.4ZM1.145,8.313a.4.4,0,1,1,.4-.4A.4.4,0,0,1,1.145,8.313Zm1.31,2.5a.4.4,0,1,1,.4-.4A.4.4,0,0,1,2.454,10.814ZM3.038,9.75a.868.868,0,0,0-.962-.138l-.44-.972a.884.884,0,0,0-.01-1.478l.691-1.5a.989.989,0,0,0,.215.031.9.9,0,0,0,.333-.067L4.5,8.195a.874.874,0,0,0-.256.619,1.191,1.191,0,0,0,.02.194L3.032,9.75ZM7.217,10.8l-3.893-.2a1.009,1.009,0,0,0,.02-.179.79.79,0,0,0-.061-.312L4.45,9.382a.874.874,0,0,0,1.32.051l1.458,1.192.067-.082a1.132,1.132,0,0,0-.077.256Zm.875.522a.4.4,0,1,1,.4-.4A.4.4,0,0,1,8.092,11.321Zm2.22-1.8-1.473.921a.884.884,0,0,0-.747-.409.9.9,0,0,0-.629.261L5.974,9.075a.863.863,0,0,0,.041-.256.886.886,0,0,0-.3-.655l.061.015.271-.972a.973.973,0,0,0,.128.015.873.873,0,0,0,.665-.307l3.474,2.031a.854.854,0,0,0-.056.3.976.976,0,0,0,.046.276Zm.839.128a.4.4,0,1,1,.4-.4A.4.4,0,0,1,11.151,9.648ZM13.76,8.88l-1.775.077a.884.884,0,0,0-.834-.6.872.872,0,0,0-.609.246l-3.5-2.046a.824.824,0,0,0,.031-.225.972.972,0,0,0-.046-.271l2.67-.655a.881.881,0,0,0,.645.286.891.891,0,0,0,.772-.46l3.811.4a.918.918,0,0,0,.327.5l-.067-.02-.537,1.964H14.63a.889.889,0,0,0-.88.808Zm.88.481a.4.4,0,1,1,.4-.4A.4.4,0,0,1,14.64,9.361Zm-.23,3.494a.4.4,0,1,1,.4-.4A.4.4,0,0,1,14.41,12.855Zm.128-1.279.532-1.852a.887.887,0,0,0,.455-.772.9.9,0,0,0-.481-.783l.517-1.9a.824.824,0,0,0,.225.031.862.862,0,0,0,.527-.179l2.374,2.108a.862.862,0,0,0-.179.527.876.876,0,0,0,.153.5L14.9,11.7a.9.9,0,0,0-.363-.138Zm2.491,4.133a.4.4,0,1,1,.4-.4A.4.4,0,0,1,17.029,15.71Zm.614-1.038a.879.879,0,0,0-.614-.251.89.89,0,0,0-.665.307l-1.422-1.571a.859.859,0,0,0,.322-.476l3.259.522a.816.816,0,0,0-.046.271.883.883,0,0,0,.189.542l-1.023.655Zm1.719-.793a.4.4,0,1,1,.4-.4A.4.4,0,0,1,19.362,13.878Zm2.225-1.386a.79.79,0,0,0,.061.312l-1.591.128a.879.879,0,0,0-1.284-.118l-3.494-.537a.927.927,0,0,0-.1-.266L18.963,9.53a.839.839,0,0,0,.435.118.867.867,0,0,0,.506-.164l2.046,2.287a.884.884,0,0,0-.363.711Zm.885.4a.4.4,0,1,1,.4-.4A.4.4,0,0,1,22.472,12.9Zm.609-1.044a.872.872,0,0,0-.609-.246.682.682,0,0,0-.143.015L20.17,9.182a.847.847,0,0,0,.041-.742L22.288,7.4a.876.876,0,0,0,.5.153.865.865,0,0,0,.23-.036L24.6,9.356a.883.883,0,0,0-.235,1.581l-1.279.916Zm1.77-1.248a.4.4,0,1,1,.4-.4A.4.4,0,0,1,24.851,10.6Z" transform="translate(-0.27 -0.24)" fill="#054391" stroke="#054391" stroke-width="0.5"/>
        <path id="패스_11" data-name="패스 11" d="M21.643,22.927,16.43,21.914l.118-.384,5.213,1.013Z" transform="translate(-8.163 -10.639)" fill="#054391" stroke="#054391" stroke-width="0.5"/>
      </g>
    </g>
  </g>
</svg>
