<svg xmlns="http://www.w3.org/2000/svg" width="167" height="116.572" viewBox="0 0 167 116.572">
  <g id="_이어_1-2" transform="translate(0 -0.01)">
    <g id="그룹_13" data-name="그룹 13" transform="translate(0 0.26)">
      <g id="그룹_11" data-name="그룹 11" transform="translate(0 102.292)">
        <path id="패스_13" data-name="패스 13" d="M0,167.457v-3.005H8.267c1.155,0,1.676-.641,1.676-1.883V153.44h3.139V162.9c0,3.045-1.3,4.554-4.134,4.554Z" transform="translate(0 -153.44)" fill="#054391"/>
        <path id="패스_14" data-name="패스 14" d="M26.584,167.457c-2.838,0-4.154-1.509-4.154-4.554v-4.908c0-3.045,1.316-4.554,4.154-4.554h9.449c2.838,0,4.134,1.509,4.134,4.554V162.9c0,3.045-1.3,4.554-4.134,4.554Zm10.444-9.129c0-1.282-.521-1.9-1.676-1.9H27.265c-1.155,0-1.676.621-1.676,1.9v4.247c0,1.242.521,1.883,1.676,1.883h8.087c1.155,0,1.676-.641,1.676-1.883Z" transform="translate(-7.452 -153.44)" fill="#054391"/>
        <path id="패스_15" data-name="패스 15" d="M55.864,167.457c-2.838,0-4.154-1.509-4.154-4.554v-4.908c0-3.045,1.316-4.554,4.154-4.554h9.449c2.838,0,4.134,1.509,4.134,4.554V162.9c0,3.045-1.3,4.554-4.134,4.554Zm10.444-9.129c0-1.282-.521-1.9-1.676-1.9H56.545c-1.155,0-1.676.621-1.676,1.9v4.247c0,1.242.521,1.883,1.676,1.883h8.087c1.155,0,1.676-.641,1.676-1.883Z" transform="translate(-17.179 -153.44)" fill="#054391"/>
        <path id="패스_16" data-name="패스 16" d="M95.464,167.46v-9.129c0-1.262-.541-1.9-1.656-1.9H84.359v11.039H81.22V153.45H94.462c2.818,0,4.134,1.536,4.134,4.554v9.463H95.457Z" transform="translate(-26.982 -153.443)" fill="#054391"/>
        <path id="패스_17" data-name="패스 17" d="M114.244,167.457c-2.838,0-4.154-1.509-4.154-4.554v-4.908c0-3.045,1.316-4.554,4.154-4.554H126.6v2.978H114.918c-1.155,0-1.676.621-1.676,1.9v4.247c0,1.242.521,1.883,1.676,1.883H126.6v3.005Z" transform="translate(-36.573 -153.44)" fill="#054391"/>
        <path id="패스_18" data-name="패스 18" d="M151.663,167.457V161.6H140.919v5.857H137.78V153.44h3.139V158.8h10.745V153.44H154.8v14.017Z" transform="translate(-45.772 -153.44)" fill="#054391"/>
        <path id="패스_19" data-name="패스 19" d="M169.449,167.463c-2.3,0-3.139-1.115-3.139-3.165v-1.9c0-2.05.841-3.165,3.139-3.165h11.466v-.888c0-1.282-.541-1.9-1.676-1.9H166.657V153.46h13.262c2.818,0,4.114,1.509,4.114,4.554v9.463H169.455Zm11.466-5.9H170.591c-.841,0-1.155.434-1.155,1.222v.7c0,.828.321,1.262,1.155,1.262h10.324v-3.192Z" transform="translate(-55.25 -153.447)" fill="#054391"/>
        <path id="패스_20" data-name="패스 20" d="M210.979,167.457a1.009,1.009,0,0,1-.341-.908v-2.611c0-.908-.561-1.262-1.416-1.262H199.059v4.781H195.92V153.44h14.5c2.3,0,3.139,1.115,3.139,3.165v1.8c0,2.317-1.1,2.671-1.917,2.8.841.08,2.117.541,2.117,2.691v2.651a1,1,0,0,0,.361.908Zm-.541-10.084c0-.808-.321-1.222-1.155-1.222H199.059v3.933h10.084c.781,0,1.3-.307,1.3-1.222Z" transform="translate(-65.087 -153.44)" fill="#054391"/>
        <path id="패스_21" data-name="패스 21" d="M231.332,167.457V156.418H224.3V153.44h17.216v2.978h-7.072v11.039h-3.119Z" transform="translate(-74.516 -153.44)" fill="#054391"/>
      </g>
      <g id="그룹_12" data-name="그룹 12" transform="translate(17.049)">
        <path id="패스_22" data-name="패스 22" d="M160.6,49.89l-8.828-11a4.817,4.817,0,0,0-3.259-8.381,5.264,5.264,0,0,0-.735.073L133.11,15.913a4.811,4.811,0,0,0-6.6-5.6L104.99,4.06a4.846,4.846,0,0,0-4.721-3.8,4.907,4.907,0,0,0-4.761,4.047L68.335,7.432a4.833,4.833,0,0,0-8.9,2.611,5,5,0,0,0,.08.781L41.43,21.85a4.819,4.819,0,1,0-6.624,6.978L30.9,37.336a4.669,4.669,0,0,0-.534-.053,4.838,4.838,0,0,0,0,9.676,4.475,4.475,0,0,0,.514-.053l2.858,5.9a4.814,4.814,0,0,0,7.506,6.03l22.5,1.322a4.825,4.825,0,0,0,9.382-1.6c0-.16-.033-.307-.047-.467l8.454-5.282a4.809,4.809,0,0,0,8.22-2.771l9.77-.414a4.841,4.841,0,0,0,4.494,3.078c.067,0,.134-.02.2-.02l-2.958,9.69a4.821,4.821,0,0,0,1.5,9.409,5,5,0,0,0,.781-.08l8.788,9.836a5.014,5.014,0,0,0-.107,1.008,4.835,4.835,0,0,0,9.67,0,4.671,4.671,0,0,0-.274-1.536l6.077-4.14a4.8,4.8,0,0,0,2.1.494,4.848,4.848,0,0,0,4.841-4.835,4.91,4.91,0,0,0-.094-.948l9.082-.795A4.789,4.789,0,0,0,146.793,72a4.822,4.822,0,0,0,4.421-6.791l.474.24,7.506-6.03a4.469,4.469,0,0,0,.6.06,4.829,4.829,0,0,0,.821-9.589ZM148.51,33.142a2.2,2.2,0,1,1-2.2,2.2A2.206,2.206,0,0,1,148.51,33.142Zm-20.08-20.6a2.2,2.2,0,1,1-2.2,2.2A2.206,2.206,0,0,1,128.429,12.541Zm0,7.045a4.8,4.8,0,0,0,3.6-1.636L145.6,31.519a4.754,4.754,0,0,0-1.309,6.157l-11.105,5.556A4.806,4.806,0,0,0,129.992,42a4.735,4.735,0,0,0-2.164.534l-13.249-11.78a4.767,4.767,0,0,0,.541-2.17,4.943,4.943,0,0,0-.588-2.264l11.573-7.346a4.81,4.81,0,0,0,2.324.621ZM132.2,46.825a2.2,2.2,0,1,1-2.2-2.2A2.206,2.206,0,0,1,132.2,46.825Zm-27.279-40.5L124.443,12a4.8,4.8,0,0,0-.861,2.745,4.732,4.732,0,0,0,.821,2.691l-11.339,7.2a4.68,4.68,0,0,0-4.394-.608L103.34,8.788A4.837,4.837,0,0,0,104.91,6.33Zm7.566,22.244a2.2,2.2,0,1,1-2.2-2.2A2.206,2.206,0,0,1,112.482,28.567ZM100.262,2.884a2.2,2.2,0,1,1-2.2,2.2,2.206,2.206,0,0,1,2.2-2.2Zm-31.2,6.671L95.661,6.5a4.827,4.827,0,0,0,4.608,3.432,4.725,4.725,0,0,0,1.068-.127l5.416,15.486a4.736,4.736,0,0,0-1.169,2.2l-20.2-2.137c0-.06.02-.12.02-.18a4.842,4.842,0,0,0-4.835-4.835,4.775,4.775,0,0,0-2.638.795l-9.583-8.468a4.807,4.807,0,0,0,.781-2.618c0-.167-.033-.327-.047-.487Zm13.7,15.613a2.2,2.2,0,1,1-2.2-2.2A2.206,2.206,0,0,1,82.759,25.168Zm-6.351-2.444a4.772,4.772,0,0,0-.688,2.444,4.694,4.694,0,0,0,.2,1.3L61.263,30.077a5.1,5.1,0,0,0-1.135-.815L63.12,14.724a4.735,4.735,0,0,0,1.162.154,4.832,4.832,0,0,0,2.464-.694l9.663,8.541ZM64.282,7.839a2.2,2.2,0,1,1-2.2,2.2A2.206,2.206,0,0,1,64.282,7.839ZM42.539,23.746,60.375,12.874a5.07,5.07,0,0,0,.728.788L58.011,28.694c-.047,0-.087-.013-.134-.013a4.826,4.826,0,0,0-2.745,8.8l-1.409,5.042a4.744,4.744,0,0,0-1.576-.287,4.691,4.691,0,0,0-1.589.294l-9-14.164a4.628,4.628,0,0,0,.995-4.621Zm17.529,9.77a2.2,2.2,0,1,1-2.2-2.2A2.206,2.206,0,0,1,60.068,33.516ZM54.332,47.078a2.2,2.2,0,1,1-2.2-2.2A2.206,2.206,0,0,1,54.332,47.078ZM37.937,22.965a2.2,2.2,0,1,1-2.2,2.2A2.206,2.206,0,0,1,37.937,22.965ZM30.378,44.327a2.2,2.2,0,1,1,2.2-2.2A2.206,2.206,0,0,1,30.378,44.327ZM37.53,58a2.2,2.2,0,1,1,2.2-2.2A2.206,2.206,0,0,1,37.53,58Zm3.185-5.816a4.727,4.727,0,0,0-5.249-.741l-2.4-5.3a4.817,4.817,0,0,0-.08-8.067l3.773-8.22a4.891,4.891,0,0,0,1.175.16,4.841,4.841,0,0,0,1.816-.361l8.922,14.05a4.822,4.822,0,0,0-1.389,3.379,4.622,4.622,0,0,0,.127,1.062L40.7,52.187ZM63.534,57.9,42.271,56.768a4.688,4.688,0,0,0,.1-.975,4.8,4.8,0,0,0-.327-1.7l6.377-3.947a4.781,4.781,0,0,0,7.205.267l7.96,6.518.361-.441A4.774,4.774,0,0,0,63.534,57.9Zm4.775,2.865a2.2,2.2,0,1,1,2.2-2.2A2.206,2.206,0,0,1,68.308,60.761Zm12.114-9.836-8.047,5.028a4.817,4.817,0,0,0-7.493-.808l-8.134-6.658a4.684,4.684,0,0,0,.234-1.409A4.8,4.8,0,0,0,55.367,43.5l.334.093,1.489-5.309a4.707,4.707,0,0,0,.694.067,4.808,4.808,0,0,0,3.626-1.669L80.482,47.766a4.525,4.525,0,0,0-.047,3.152ZM85,51.633a2.2,2.2,0,1,1,2.2-2.2A2.206,2.206,0,0,1,85,51.633ZM99.24,47.439l-9.69.414a4.8,4.8,0,0,0-7.88-1.917L62.532,34.751a4.332,4.332,0,0,0-.073-2.7l14.578-3.586a4.8,4.8,0,0,0,7.753-.968l20.822,2.2a4.846,4.846,0,0,0,1.8,2.718l-.361-.1-2.925,10.718s-.053-.007-.08-.007a4.824,4.824,0,0,0-4.795,4.414Zm4.795,2.631a2.2,2.2,0,1,1,2.2-2.2A2.206,2.206,0,0,1,104.035,50.07Zm-1.262,19.079a2.2,2.2,0,1,1,2.2-2.2A2.206,2.206,0,0,1,102.773,69.149Zm.688-6.972,2.918-10.1a4.817,4.817,0,0,0,2.5-4.207,4.887,4.887,0,0,0-2.631-4.281l2.825-10.364a4.667,4.667,0,0,0,1.229.174,4.774,4.774,0,0,0,2.885-.982l12.962,11.519A4.781,4.781,0,0,0,126,49.516l-20.541,13.4a4.823,4.823,0,0,0-2-.748ZM117.07,84.755a2.2,2.2,0,1,1,2.2-2.2A2.206,2.206,0,0,1,117.07,84.755Zm3.346-5.69a4.791,4.791,0,0,0-6.985.327l-7.78-8.588a4.838,4.838,0,0,0,1.77-2.6l17.8,2.838A4.626,4.626,0,0,0,126,75.486l-5.589,3.579Zm9.389-4.334a2.2,2.2,0,1,1,2.2-2.2A2.206,2.206,0,0,1,129.8,74.732Zm12.16-7.573a4.863,4.863,0,0,0,.327,1.71l-8.695.695a4.771,4.771,0,0,0-7-.628L107.514,66a4.8,4.8,0,0,0-.568-1.462L127.615,51a4.749,4.749,0,0,0,5.162-.227l11.185,12.494a4.814,4.814,0,0,0-1.99,3.887Zm4.835,2.2a2.2,2.2,0,1,1,2.2-2.2A2.206,2.206,0,0,1,146.8,69.363Zm3.332-5.7a4.815,4.815,0,0,0-3.332-1.349,4.908,4.908,0,0,0-.768.08l-11.78-13.322a4.816,4.816,0,0,0,.588-2.264,4.865,4.865,0,0,0-.354-1.8l11.332-5.67a4.828,4.828,0,0,0,2.7.828,4.556,4.556,0,0,0,1.249-.187l8.634,10.037a4.812,4.812,0,0,0-1.289,8.628l-6.978,5.008Zm9.663-6.825a2.2,2.2,0,1,1,2.2-2.2A2.206,2.206,0,0,1,159.8,56.842Z" transform="translate(-25.53 -0.26)" fill="#054391" stroke="#054391" stroke-miterlimit="10" stroke-width="0.5"/>
        <path id="패스_23" data-name="패스 23" d="M121.688,96.916,93.22,91.394l.634-2.1,28.468,5.523Z" transform="translate(-48.018 -29.837)" fill="#054391" stroke="#054391" stroke-miterlimit="10" stroke-width="0.5"/>
      </g>
    </g>
  </g>
</svg>
